<?xml version="1.0" standalone="no"?>
<!DOCTYPE svg PUBLIC "-//W3C//DTD SVG 20010904//EN"
 "http://www.w3.org/TR/2001/REC-SVG-20010904/DTD/svg10.dtd">
<svg version="1.0" xmlns="http://www.w3.org/2000/svg"
 width="1320.000000pt" height="1320.000000pt" viewBox="0 0 1320.000000 1320.000000"
 preserveAspectRatio="xMidYMid meet">
<metadata>
Created by potrace 1.11, written by Peter Selinger 2001-2013
</metadata>
<g transform="translate(0.000000,1320.000000) scale(0.100000,-0.100000)"
fill="#000000" stroke="none">
<path d="M0 9596 c0 -2 7 -22 15 -45 8 -23 15 -43 15 -46 0 -3 2 -10 5 -17 3
-10 19 -68 30 -108 1 -3 12 -39 24 -80 13 -41 23 -76 22 -77 0 -2 6 -20 14
-40 8 -21 16 -47 18 -58 4 -21 44 -158 54 -185 8 -19 7 -17 22 -70 6 -25 16
-56 22 -70 5 -14 11 -34 14 -45 2 -11 13 -51 25 -90 12 -38 22 -74 24 -80 1
-5 14 -49 29 -97 26 -84 28 -87 60 -90 17 -2 53 0 80 3 26 3 47 3 47 0 0 -3
21 -5 47 -4 101 5 121 5 131 -1 6 -3 13 -2 16 3 4 6 18 6 35 1 15 -4 34 -4 41
0 6 4 27 4 45 0 18 -4 39 -4 46 0 7 5 22 5 33 0 11 -4 33 -4 47 0 15 4 32 4
39 0 7 -4 26 -4 41 0 16 5 31 5 34 1 2 -5 23 -5 45 -1 21 4 42 5 45 2 6 -7
115 -5 122 2 2 2 18 0 34 -4 16 -5 31 -5 34 0 3 5 18 5 34 0 15 -4 34 -4 41 0
6 4 27 4 45 0 18 -4 39 -4 46 0 7 5 22 5 33 0 11 -4 33 -4 47 0 15 4 32 4 39
0 7 -4 26 -4 41 0 16 5 31 5 34 1 2 -5 23 -5 45 -1 21 4 42 5 45 2 6 -7 115
-5 122 2 2 2 18 0 34 -4 16 -5 31 -5 34 0 3 5 18 5 34 0 15 -4 34 -4 41 0 6 4
27 4 45 0 18 -4 39 -4 46 0 7 5 22 5 33 0 11 -4 33 -4 47 0 15 4 32 4 39 0 7
-4 26 -4 41 0 16 5 31 5 34 1 2 -5 23 -5 45 -1 21 4 42 5 44 2 3 -2 75 -4 161
-4 l155 0 16 -57 c8 -31 18 -63 21 -71 5 -14 70 -229 78 -260 9 -30 44 -147
85 -280 22 -74 43 -143 45 -153 5 -20 46 -156 81 -269 13 -42 26 -85 27 -95 2
-10 9 -31 15 -46 7 -16 12 -32 12 -36 0 -4 11 -43 24 -87 14 -43 37 -119 51
-169 15 -49 42 -140 61 -201 19 -62 37 -120 39 -130 2 -11 13 -47 24 -81 10
-35 17 -63 14 -63 -3 0 -1 -6 5 -12 9 -11 32 -85 47 -151 2 -9 7 -22 10 -27 3
-5 8 -19 11 -30 7 -34 12 -53 33 -117 10 -35 17 -63 14 -63 -3 0 -1 -6 5 -12
6 -7 18 -40 27 -73 9 -33 20 -73 25 -90 7 -27 98 -327 120 -397 5 -16 6 -28 3
-28 -3 0 -1 -6 4 -12 8 -10 33 -87 38 -118 1 -3 14 -45 29 -94 16 -49 29 -94
31 -100 1 -6 5 -18 8 -26 4 -8 8 -24 10 -35 2 -11 7 -27 10 -35 5 -13 38 -122
43 -142 1 -5 3 -10 4 -13 1 -3 3 -8 4 -12 1 -5 10 -35 21 -68 10 -33 19 -65
20 -70 3 -13 36 -125 43 -145 3 -8 6 -19 8 -25 1 -5 17 -57 34 -115 18 -58 33
-109 34 -115 1 -5 4 -14 7 -20 3 -5 12 -32 18 -60 7 -27 15 -57 18 -65 4 -8 7
-20 8 -26 2 -6 17 -56 33 -110 79 -254 114 -370 115 -382 0 -10 725 -12 3605
-10 l3604 3 34 90 c19 50 43 113 53 140 11 28 54 142 96 255 42 113 80 214 85
225 7 16 19 51 25 75 1 3 7 19 14 35 6 17 21 55 33 85 11 30 27 70 35 88 8 18
16 40 18 50 4 19 140 384 157 422 7 14 12 28 14 33 1 4 3 9 4 12 1 3 3 8 5 13
1 4 5 16 9 27 4 11 12 34 18 50 5 17 14 39 19 50 11 25 185 491 211 565 11 30
24 64 29 75 14 32 140 368 144 385 2 8 4 16 5 18 2 1 3 5 4 10 2 4 7 18 14 32
6 14 23 59 37 100 15 41 31 84 36 95 9 20 167 443 220 586 15 42 32 85 38 95
5 11 14 33 20 49 14 44 78 219 111 305 36 94 42 113 46 125 1 6 46 125 99 265
53 140 105 280 116 310 11 30 22 62 26 70 3 8 7 17 7 20 1 3 5 10 9 17 4 6 2
15 -4 19 -16 9 -120 11 -126 1 -2 -4 -12 -4 -21 1 -9 4 -30 6 -47 5 -37 -4
-28 -4 -168 -1 -64 2 -117 -1 -117 -5 0 -5 -5 -5 -11 -1 -16 9 -110 11 -116 1
-2 -4 -9 -4 -15 -1 -9 6 -203 9 -218 3 -3 -1 -9 0 -15 1 -28 6 -77 4 -82 -2
-2 -5 -9 -6 -14 -2 -16 9 -79 10 -79 1 0 -4 -5 -5 -11 -2 -15 10 -80 12 -86 3
-2 -5 -9 -5 -15 -2 -6 4 -67 6 -137 5 -69 -1 -133 -1 -141 -1 -8 0 -26 0 -40
-1 -14 0 -32 0 -40 0 -8 1 -26 1 -40 0 -14 0 -32 0 -40 0 -18 2 -58 0 -85 -3
-11 -1 -34 1 -51 5 -18 3 -38 3 -45 -1 -7 -5 -22 -5 -34 0 -12 5 -28 5 -35 0
-7 -4 -25 -4 -40 0 -15 4 -33 4 -40 0 -7 -4 -24 -4 -39 0 -14 4 -35 4 -46 0
-11 -4 -27 -4 -35 0 -8 4 -24 4 -35 0 -11 -4 -29 -4 -40 0 -11 4 -29 4 -40 0
-11 -4 -32 -4 -47 1 -15 4 -30 4 -33 -1 -3 -4 -20 -5 -37 -1 -18 4 -42 6 -53
5 -11 -1 -32 -3 -47 -3 -16 -1 -40 -1 -55 -2 -16 0 -35 0 -43 0 -8 1 -26 1
-40 0 -14 0 -32 0 -40 0 -8 1 -26 1 -40 0 -14 0 -36 -1 -50 -1 -14 1 -41 1
-60 1 -19 0 -44 1 -55 1 -11 1 -27 1 -35 0 -8 0 -26 0 -40 1 -14 0 -31 0 -37
0 -7 -1 -21 -1 -30 -1 -10 0 -31 0 -48 -1 -16 0 -39 0 -50 1 -11 1 -27 1 -35
0 -8 0 -26 0 -40 1 -14 0 -32 0 -40 0 -8 -1 -24 -1 -35 -1 -11 1 -27 1 -35 1
-8 -1 -28 -1 -45 0 -67 1 -81 1 -107 0 -70 -2 -84 -3 -98 -2 -8 1 -26 1 -40 0
-14 0 -32 0 -40 0 -18 2 -58 0 -85 -3 -11 -1 -34 1 -51 5 -18 3 -38 3 -45 -1
-7 -5 -22 -5 -34 0 -12 5 -28 5 -35 0 -7 -4 -25 -4 -40 0 -15 4 -33 4 -40 0
-7 -4 -24 -4 -39 0 -14 4 -35 4 -46 0 -11 -4 -27 -4 -35 0 -8 4 -24 4 -35 0
-11 -4 -29 -4 -40 0 -11 4 -29 4 -40 0 -11 -4 -32 -4 -47 1 -15 4 -30 4 -33
-1 -3 -4 -20 -5 -37 -1 -18 4 -42 6 -53 5 -11 -1 -32 -3 -47 -3 -16 -1 -40 -1
-55 -2 -16 0 -35 0 -43 0 -8 1 -26 1 -40 0 -14 0 -32 0 -40 0 -8 1 -26 1 -40
0 -14 0 -36 -1 -50 -1 -14 1 -41 1 -60 1 -19 0 -44 1 -55 1 -11 1 -27 1 -35 0
-8 0 -26 0 -40 1 -14 0 -31 0 -37 0 -7 -1 -21 -1 -30 -1 -10 0 -31 0 -48 -1
-16 0 -39 0 -50 1 -11 1 -27 1 -35 0 -8 0 -26 0 -40 1 -14 0 -32 0 -40 0 -8
-1 -24 -1 -35 -1 -11 1 -27 1 -35 1 -8 -1 -28 -1 -45 0 -67 1 -81 1 -107 0
-70 -2 -84 -3 -98 -2 -8 1 -26 1 -40 0 -14 0 -32 0 -40 0 -18 2 -58 0 -85 -3
-11 -1 -34 1 -51 5 -18 3 -38 3 -45 -1 -7 -5 -22 -5 -34 0 -12 5 -28 5 -35 0
-7 -4 -25 -4 -40 0 -15 4 -33 4 -40 0 -7 -4 -24 -4 -39 0 -14 4 -35 4 -46 0
-11 -4 -27 -4 -35 0 -8 4 -24 4 -35 0 -11 -4 -29 -4 -40 0 -11 4 -29 4 -40 0
-11 -4 -32 -4 -47 1 -15 4 -30 4 -33 -1 -3 -4 -20 -5 -37 -1 -18 4 -42 6 -53
5 -11 -1 -32 -3 -47 -3 -16 -1 -40 -1 -55 -2 -16 0 -35 0 -43 0 -8 1 -26 1
-40 0 -14 0 -32 0 -40 0 -8 1 -26 1 -40 0 -14 0 -36 -1 -50 -1 -14 1 -41 1
-60 1 -19 0 -44 1 -55 1 -11 1 -27 1 -35 0 -8 0 -26 0 -40 1 -14 0 -31 0 -37
0 -7 -1 -21 -1 -30 -1 -10 0 -31 0 -48 -1 -16 0 -37 0 -45 1 -8 0 -24 0 -35 0
-11 -1 -27 -1 -35 0 -8 0 -26 0 -40 -1 -14 0 -32 0 -40 0 -42 2 -173 1 -176
-2 -3 -3 23 -112 33 -137 3 -8 14 -42 24 -75 9 -33 25 -85 34 -115 9 -30 18
-62 20 -70 2 -8 20 -69 40 -135 21 -66 38 -124 39 -130 2 -5 13 -43 25 -84 13
-41 24 -81 27 -90 2 -9 15 -54 29 -101 15 -47 38 -124 52 -172 14 -48 30 -85
34 -82 5 3 9 2 9 -3 0 -9 138 -8 147 1 3 2 15 1 27 -3 11 -5 30 -5 41 -1 11 4
31 4 45 0 14 -3 36 -4 50 0 14 4 35 3 47 -1 12 -5 25 -4 28 1 3 5 16 6 28 1
12 -4 36 -4 52 -1 17 3 40 3 52 -1 13 -5 25 -4 28 2 4 5 11 7 16 3 6 -3 33 -6
60 -5 27 1 71 1 98 2 27 1 54 -2 60 -6 6 -3 11 0 11 7 0 8 3 9 8 3 8 -11 122
-14 122 -3 0 4 13 3 29 -2 16 -4 32 -6 35 -3 8 8 102 7 115 -2 6 -3 11 -1 11
5 0 6 5 8 11 4 6 -4 33 -6 60 -5 46 1 71 2 134 1 47 0 55 0 108 0 28 0 73 1
99 1 25 1 51 -2 56 -5 6 -3 13 0 15 6 3 7 6 9 6 3 1 -6 30 -9 73 -7 40 2 82 3
93 2 11 -1 27 -1 35 -1 8 1 29 1 45 0 17 0 36 0 43 0 19 1 46 2 107 1 82 0
127 0 167 1 25 1 51 -2 56 -5 6 -3 13 0 15 6 3 7 6 9 6 3 1 -6 30 -9 73 -7 40
2 79 3 86 3 17 -1 59 -1 75 0 6 0 35 0 62 -1 28 0 73 0 102 1 28 1 56 -2 62
-6 6 -3 11 0 11 7 0 8 3 9 8 3 8 -11 122 -14 122 -3 0 4 13 3 29 -2 16 -4 32
-6 35 -3 8 8 102 7 115 -2 6 -3 11 -1 11 5 0 6 5 8 11 4 11 -6 69 -7 142 -1
17 1 42 -1 54 -5 12 -4 25 -3 28 2 3 5 16 6 28 1 12 -4 36 -4 52 -1 17 3 40 3
52 -1 12 -5 25 -4 28 1 3 5 15 6 28 1 12 -5 31 -5 42 -1 11 4 29 4 40 0 11 -4
29 -4 40 0 11 4 24 5 29 2 4 -2 31 -4 60 -3 122 3 145 3 154 -3 6 -3 13 0 15
6 3 7 6 9 6 3 1 -10 138 -11 148 -1 3 2 15 1 27 -3 11 -5 30 -5 41 -1 11 4 31
4 45 0 14 -3 36 -4 50 0 14 4 35 3 47 -1 12 -5 25 -4 28 1 3 5 16 6 28 1 12
-4 36 -4 52 -1 17 3 40 3 52 -1 13 -5 25 -4 28 2 4 5 11 7 16 3 6 -3 33 -6 60
-5 27 1 71 1 98 2 27 1 54 -2 60 -6 6 -3 11 0 11 7 0 8 3 9 8 3 8 -11 122 -14
122 -3 0 4 13 3 29 -2 16 -4 32 -6 35 -3 8 8 102 7 115 -2 6 -3 11 -1 11 5 0
6 5 8 11 4 13 -7 107 -9 114 -2 3 2 18 3 34 0 l29 -4 -35 -97 c-20 -53 -36
-102 -36 -108 0 -7 -4 -13 -9 -13 -4 0 -8 -5 -8 -12 0 -11 -153 -424 -221
-598 -16 -41 -29 -79 -29 -83 0 -5 -6 -23 -14 -40 -8 -18 -36 -88 -61 -157
-25 -69 -52 -141 -60 -160 -7 -19 -26 -69 -40 -110 -15 -41 -34 -87 -42 -103
-8 -15 -12 -27 -8 -27 3 0 -3 -17 -14 -37 -10 -21 -19 -40 -18 -43 1 -9 -36
-105 -45 -115 -4 -5 -8 -15 -8 -23 0 -7 -11 -41 -24 -75 -13 -34 -48 -125 -76
-202 -29 -77 -74 -196 -100 -265 l-48 -125 -143 -2 c-79 -1 -157 -4 -174 -6
-16 -2 -42 0 -57 4 -15 4 -30 4 -33 -1 -3 -4 -22 -4 -42 1 -21 4 -40 8 -43 7
-3 -1 -20 -5 -38 -9 -19 -4 -32 -3 -32 3 0 5 -4 7 -9 3 -5 -3 -31 -5 -58 -5
-26 0 -73 0 -103 0 -87 -1 -101 -1 -171 1 -37 1 -72 -2 -79 -6 -9 -6 -11 -4
-5 5 5 8 4 11 -3 6 -6 -3 -32 -6 -59 -6 -144 1 -216 0 -224 -6 -5 -3 -9 0 -9
7 0 9 -3 10 -11 2 -7 -7 -23 -8 -45 -3 -19 5 -37 4 -40 -1 -3 -5 -10 -6 -16
-3 -13 8 -185 7 -198 -1 -6 -3 -10 -1 -10 6 0 8 -3 9 -13 0 -8 -6 -17 -8 -20
-5 -3 3 -32 5 -64 4 -32 -1 -62 -1 -68 -1 -13 0 -122 1 -160 0 -16 0 -60 1
-96 2 -37 1 -72 -2 -79 -6 -9 -6 -11 -4 -5 5 5 8 4 11 -3 6 -13 -8 -98 -9
-129 -2 -13 3 -23 0 -23 -5 0 -6 -5 -7 -11 -4 -6 4 -36 6 -67 5 -31 -1 -61 -1
-67 -1 -53 2 -135 1 -155 -2 -14 -2 -37 0 -52 4 -15 4 -30 4 -33 -1 -3 -4 -22
-4 -42 1 -21 4 -38 8 -38 8 0 0 -17 -4 -37 -8 -24 -6 -38 -5 -38 1 0 5 -4 6
-10 3 -5 -3 -38 -6 -72 -5 -84 1 -128 1 -158 -3 -14 -2 -37 0 -52 4 -15 4 -30
4 -33 -1 -3 -4 -22 -4 -42 1 -21 4 -38 8 -38 8 0 0 -17 -4 -37 -8 -24 -6 -38
-5 -38 1 0 5 -4 7 -9 3 -5 -3 -31 -5 -58 -5 -97 1 -149 0 -173 -3 -14 -2 -37
0 -52 4 -15 4 -30 4 -33 -1 -3 -4 -20 -5 -37 -1 -18 4 -35 8 -38 9 -3 1 -22
-3 -42 -7 -24 -6 -38 -5 -38 1 0 5 -4 7 -9 3 -5 -3 -31 -5 -58 -5 -26 0 -73 0
-103 0 -87 -1 -101 -1 -171 1 -37 1 -72 -2 -79 -6 -7 -5 -11 -4 -7 1 5 8 -63
8 -133 1 -14 -2 -37 0 -52 4 -15 4 -30 4 -33 -1 -3 -4 -22 -4 -42 1 -21 4 -40
8 -43 7 -3 -1 -20 -5 -37 -9 -20 -4 -33 -3 -33 3 0 5 -4 7 -9 3 -5 -3 -31 -5
-58 -5 -97 1 -149 0 -173 -3 -14 -2 -37 0 -52 4 -15 4 -30 4 -33 -1 -3 -4 -22
-4 -42 1 -21 4 -38 8 -38 8 0 0 -17 -4 -37 -8 -24 -6 -38 -5 -38 1 0 5 -4 7
-9 3 -5 -3 -31 -5 -58 -5 -26 0 -73 0 -103 0 -81 -1 -97 -1 -190 0 -47 1 -89
1 -95 0 -12 -2 -75 0 -101 4 -16 2 -40 60 -69 171 -1 6 -4 15 -5 20 -2 6 -11
33 -20 60 -9 28 -17 52 -18 55 -3 23 -17 67 -25 78 -5 7 -7 15 -4 19 4 3 3 11
-2 17 -6 7 -12 24 -15 39 -2 14 -18 71 -35 124 -37 123 -75 246 -76 253 -1 3
-7 25 -14 50 -7 25 -12 45 -11 45 1 0 -5 18 -14 40 -8 22 -24 74 -36 115 -12
41 -24 82 -27 90 -3 8 -7 20 -8 25 -2 6 -11 37 -21 70 -10 33 -19 65 -20 70
-5 21 -65 221 -71 235 -7 18 -10 28 -17 55 -2 11 -9 31 -14 45 -5 14 -10 27
-10 30 0 3 -3 12 -5 20 -3 8 -10 35 -17 60 -7 25 -16 56 -21 70 -10 30 -61
200 -66 218 -6 25 -10 37 -16 52 -3 8 -13 40 -21 70 -8 30 -23 84 -34 120 -11
36 -32 106 -46 155 -15 50 -29 97 -33 105 -3 8 -8 26 -10 40 -2 13 -9 30 -15
37 -6 7 -8 13 -5 13 2 0 -15 64 -40 143 -24 78 -46 152 -49 165 -2 13 -11 42
-19 65 -16 49 -105 345 -110 367 -2 8 -23 76 -45 150 -23 74 -43 140 -44 145
-5 21 -38 131 -43 145 -3 8 -7 20 -8 25 -5 20 -107 361 -115 385 -5 14 -18 59
-30 100 -12 41 -23 81 -25 88 -3 7 -4 13 -4 15 0 1 -12 35 -25 75 -14 39 -23
72 -21 72 2 0 -3 16 -11 35 -8 19 -14 37 -14 40 0 3 -7 30 -15 60 l-16 55
-1800 0 c-989 0 -1799 -2 -1799 -4z"/>
</g>
</svg>
