<svg id="Réteg_1" data-name="Réteg 1" 
	xmlns="http://www.w3.org/2000/svg" 
	xmlns:xlink="http://www.w3.org/1999/xlink" viewBox="0 0 1316 600.46">
	<defs>
		<style>.cls-1,.cls-3{fill:#00102a;}.cls-2{fill:#02aab0;}.cls-3{font-size:271.99px;font-family:RabbidHighwaySignII, Rabbid Highway Sign II;letter-spacing:0.07em;}.cls-4{letter-spacing:-0.1em;}.cls-11,.cls-5{opacity:0.3;}.cls-6{opacity:0.33;}.cls-7{fill:url(#Fehér_fekete);}.cls-8{opacity:0.4;}.cls-9{fill:url(#Fehér_fekete-2);}.cls-10{fill:#490a3d;}.cls-12{fill:url(#Névtelen_színátmenet_2);}.cls-13{fill:#94ff9d;}.cls-14{opacity:0.29;}.cls-15{fill:url(#Névtelen_színátmenet_3);}.cls-16{fill:#71ff68;}.cls-17{fill:url(#Fehér_fekete-3);}</style>
		<linearGradient id="Fehér_fekete" x1="577.45" y1="31.38" x2="765.75" y2="31.38" gradientUnits="userSpaceOnUse">
			<stop offset="0" stop-color="#ffffff"/>
			<stop offset="1"/>
		</linearGradient>
		<linearGradient id="Fehér_fekete-2" x1="797.13" y1="282.45" x2="1173.73" y2="282.45" xlink:href="#Fehér_fekete"/>
		<linearGradient id="Névtelen_színátmenet_2" x1="739.96" y1="17.54" x2="823.23" y2="297.33" gradientUnits="userSpaceOnUse">
			<stop offset="0" stop-color="#ffffff"/>
			<stop offset="0.6" stop-color="#707070"/>
			<stop offset="1"/>
		</linearGradient>
		<linearGradient id="Névtelen_színátmenet_3" x1="1230.77" y1="82.7" x2="1148.07" y2="296.28" gradientUnits="userSpaceOnUse">
			<stop offset="0" stop-color="#ffffff"/>
			<stop offset="0.2" stop-color="#d8d8d8"/>
			<stop offset="0.6" stop-color="#737373"/>
			<stop offset="1"/>
		</linearGradient>
		<linearGradient id="Fehér_fekete-3" x1="893.37" y1="94.15" x2="1267.88" y2="94.15" xlink:href="#Fehér_fekete"/>
	</defs>
	<title>VendoorFULL</title>
	<polygon class="cls-1" points="765.8,62.8 596.3,62.8 577.5,0 765.8,0 765.8,62.8"/>
	<rect class="cls-2" x="797.1" y="251.1" width="376.6" height="62.8"/>
	<text x="0" y="0" class="cls-3" transform="matrix(1,0,0,1,0,486.1)">vendoor<tspan class="cls-4" x="1177.02" y="0"></tspan>
	</text>
	<polyline class="cls-5" points="703,0 721.8,62.8 712.4,62.8"/>
	<polyline class="cls-5" points="1135,251.1 1111,313.8 1123,251.1"/>
	<g class="cls-6">
		<polygon class="cls-7" points="765.8,62.8 596.3,62.8 577.5,0 765.8,0 765.8,62.8"/>
	</g>
	<g class="cls-8">
		<rect class="cls-9" x="797.1" y="251.1" width="376.6" height="62.8"/>
	</g>
	<polygon class="cls-10" points="765.8,0 859.9,313.8 797.1,313.8 703,0 765.8,0"/>
	<g class="cls-11">
		<polygon class="cls-12" points="765.8,0 859.9,313.8 797.1,313.8 703,0 765.8,0"/>
	</g>
	<polygon class="cls-13" points="1205.6,62.8 1111.4,313.8 1174.2,313.8 1268.3,62.8 1205.6,62.8"/>
	<g class="cls-14">
		<polygon class="cls-15" points="1205.6,62.8 1111.4,313.8 1174.2,313.8 1268.3,62.8 1205.6,62.8"/>
	</g>
	<polygon class="cls-16" points="893.4,62.8 1267.9,62.8 1245,125.5 1182.5,125.5 912.1,125.5 893.4,62.8"/>
	<g class="cls-11">
		<polygon class="cls-17" points="893.4,62.8 1267.9,62.8 1245,125.5 1182.5,125.5 912.1,125.5 893.4,62.8"/>
	</g>
	<polyline class="cls-5" points="1244.9,125.5 1182.1,125.5 1178.7,134.4"/>
	<polyline class="cls-5" points="859.9,313.8 841.1,251.1 849.4,251.1"/>
</svg>