<svg id="Réteg_1" data-name="Réteg 1" xmlns="http://www.w3.org/2000/svg" viewBox="0 0 330.22 150"><defs><style>.cls-1{fill:#111528;}.cls-2{fill:#05abb0;}.cls-3{fill:#0c797c;}.cls-4{fill:#47153e;}.cls-5{fill:#a3ce8c;}.cls-6{fill:#8cc04f;}.cls-7{fill:#729063;}</style></defs><title>VendoorFLAT</title><polygon class="cls-1" points="90 30 9 30 0 0 90 0 90 30"/><rect class="cls-2" x="105" y="120" width="180" height="30"/><polyline points="60 0 69 30 64.5 30"/><polyline class="cls-3" points="266.47 120 255 150 260.74 120"/><polygon class="cls-4" points="90 0 135 150 105 150 60 0 90 0"/><polygon class="cls-5" points="300.22 30 255.22 150 285.22 150 330.22 30 300.22 30"/><polygon class="cls-6" points="151 30 330 30 319.06 60 289.2 60 159.95 60 151 30"/><polyline class="cls-7" points="319 60 289 60 287.38 64.25"/><polyline class="cls-3" points="135 150 126 120 130 120"/></svg>